<?xml version="1.0" encoding="iso-8859-1"?>
<!-- Uploaded to: SVG Repo, www.svgrepo.com, Generator: SVG Repo Mixer Tools -->
<svg height="24px" width="24px" version="1.1" id="Capa_1" xmlns="http://www.w3.org/2000/svg" xmlns:xlink="http://www.w3.org/1999/xlink" 
	 viewBox="0 0 454.55 454.55" xml:space="preserve">
<g>
	<path style="fill:#ffffff;" d="M227.275,0C142.486,0,73.507,43.65,73.507,97.307v259.919c0,53.665,68.979,97.323,153.768,97.323
		s153.768-43.659,153.768-97.323V97.307C381.043,43.65,312.064,0,227.275,0z M227.275,16.257c75.823,0,137.511,36.359,137.511,81.05
		c0,44.699-61.688,81.058-137.511,81.058S89.764,141.998,89.764,97.307S151.452,16.257,227.275,16.257z M364.786,357.226
		c0,44.699-61.688,81.066-137.511,81.066S89.764,401.926,89.764,357.226v-45.894c25.231,31.97,77.311,54.022,137.511,54.022
		s112.28-22.061,137.511-54.022V357.226z M364.786,268.04c0,44.699-61.688,81.066-137.511,81.066S89.764,312.739,89.764,268.04
		v-45.894c25.231,31.97,77.311,54.023,137.511,54.023s112.28-22.061,137.511-54.023V268.04z M364.786,178.845
		c0,44.699-61.688,81.058-137.511,81.058S89.764,223.536,89.764,178.845V140.6c25.231,31.97,77.311,54.023,137.511,54.023
		s112.28-22.053,137.511-54.023V178.845z"/>
</g>
</svg>